<mxfile host="65bd71144e" scale="4" border="0">
    <diagram id="woBObCVOX6_ovj5UqUiK" name="Page-1">
        <mxGraphModel dx="397" dy="289" grid="0" gridSize="10" guides="1" tooltips="1" connect="1" arrows="1" fold="1" page="0" pageScale="1" pageWidth="850" pageHeight="1100" background="none" math="0" shadow="0">
            <root>
                <mxCell id="0"/>
                <mxCell id="1" parent="0"/>
                <mxCell id="41" value="" style="shape=corner;whiteSpace=wrap;html=1;labelBackgroundColor=none;fontFamily=Helvetica;fontSize=11;fontColor=#808080;dx=100;dy=60;strokeColor=none;fillColor=#E6D600;opacity=10;" vertex="1" parent="1">
                    <mxGeometry x="150" y="350" width="340" height="140" as="geometry"/>
                </mxCell>
                <mxCell id="42" value="" style="rounded=0;whiteSpace=wrap;html=1;labelBackgroundColor=none;fontFamily=Helvetica;fontSize=11;fontColor=#808080;fillColor=#A100E6;opacity=10;strokeColor=none;" vertex="1" parent="1">
                    <mxGeometry x="150" y="430" width="340" height="60" as="geometry"/>
                </mxCell>
                <mxCell id="6" value="" style="edgeStyle=orthogonalEdgeStyle;shape=connector;rounded=0;html=1;labelBackgroundColor=default;strokeColor=#808080;fontFamily=Helvetica;fontSize=11;fontColor=#808080;endArrow=none;endFill=0;startArrow=diamondThin;startFill=1;" parent="1" source="2" target="5" edge="1">
                    <mxGeometry relative="1" as="geometry"/>
                </mxCell>
                <mxCell id="13" value="1" style="edgeLabel;align=left;verticalAlign=middle;resizable=0;points=[];fontSize=11;fontFamily=Helvetica;fontColor=#808080;labelBackgroundColor=none;html=1;" parent="6" vertex="1" connectable="0">
                    <mxGeometry x="-0.6807" relative="1" as="geometry">
                        <mxPoint y="4" as="offset"/>
                    </mxGeometry>
                </mxCell>
                <mxCell id="14" value="*" style="edgeLabel;align=left;verticalAlign=middle;resizable=0;points=[];fontSize=11;fontFamily=Helvetica;fontColor=#808080;labelBackgroundColor=none;html=1;" parent="6" vertex="1" connectable="0">
                    <mxGeometry x="0.74" relative="1" as="geometry">
                        <mxPoint y="-5" as="offset"/>
                    </mxGeometry>
                </mxCell>
                <mxCell id="2" value="SharedVertex" style="rounded=0;whiteSpace=wrap;html=1;fillColor=none;strokeColor=#808080;fontColor=#808080;fontFamily=Helvetica;fontSize=11;" parent="1" vertex="1">
                    <mxGeometry x="400" y="360" width="80" height="40" as="geometry"/>
                </mxCell>
                <mxCell id="4" style="edgeStyle=orthogonalEdgeStyle;html=1;fontFamily=Helvetica;fontSize=11;fontColor=#808080;endArrow=none;endFill=0;rounded=0;strokeColor=#808080;startArrow=diamondThin;startFill=0;" parent="1" source="3" target="2" edge="1">
                    <mxGeometry relative="1" as="geometry"/>
                </mxCell>
                <mxCell id="11" value="2" style="edgeLabel;align=center;verticalAlign=bottom;resizable=0;points=[];fontSize=11;fontFamily=Helvetica;fontColor=#808080;labelBackgroundColor=none;html=1;" parent="4" vertex="1" connectable="0">
                    <mxGeometry x="0.6218" y="-1" relative="1" as="geometry">
                        <mxPoint x="-2" y="-1" as="offset"/>
                    </mxGeometry>
                </mxCell>
                <mxCell id="12" value="*" style="edgeLabel;align=center;verticalAlign=bottom;resizable=0;points=[];fontSize=11;fontFamily=Helvetica;fontColor=#808080;labelBackgroundColor=none;html=1;" parent="4" vertex="1" connectable="0">
                    <mxGeometry x="-0.6667" relative="1" as="geometry">
                        <mxPoint x="3" as="offset"/>
                    </mxGeometry>
                </mxCell>
                <mxCell id="28" value="" style="edgeStyle=orthogonalEdgeStyle;shape=connector;rounded=0;html=1;labelBackgroundColor=default;strokeColor=#808080;fontFamily=Helvetica;fontSize=11;fontColor=#808080;startArrow=diamondThin;startFill=1;endArrow=none;endFill=0;" edge="1" parent="1" source="3" target="27">
                    <mxGeometry relative="1" as="geometry"/>
                </mxCell>
                <mxCell id="32" value="1" style="edgeLabel;html=1;align=left;verticalAlign=middle;resizable=0;points=[];fontSize=11;fontFamily=Helvetica;fontColor=#808080;labelBackgroundColor=none;" vertex="1" connectable="0" parent="28">
                    <mxGeometry x="-0.3444" y="1" relative="1" as="geometry">
                        <mxPoint x="-1" y="-3" as="offset"/>
                    </mxGeometry>
                </mxCell>
                <mxCell id="33" value="*" style="edgeLabel;html=1;align=left;verticalAlign=middle;resizable=0;points=[];fontSize=11;fontFamily=Helvetica;fontColor=#808080;labelBackgroundColor=none;" vertex="1" connectable="0" parent="28">
                    <mxGeometry x="0.6276" y="1" relative="1" as="geometry">
                        <mxPoint x="-1" y="-3" as="offset"/>
                    </mxGeometry>
                </mxCell>
                <mxCell id="3" value="SharedEdge" style="rounded=0;whiteSpace=wrap;html=1;fillColor=none;strokeColor=#808080;fontColor=#808080;fontFamily=Helvetica;fontSize=11;" parent="1" vertex="1">
                    <mxGeometry x="280" y="360" width="80" height="40" as="geometry"/>
                </mxCell>
                <mxCell id="5" value="Vertex" style="rounded=0;whiteSpace=wrap;html=1;fillColor=none;strokeColor=#808080;fontColor=#808080;fontFamily=Helvetica;fontSize=11;" parent="1" vertex="1">
                    <mxGeometry x="400" y="440" width="80" height="40" as="geometry"/>
                </mxCell>
                <mxCell id="20" value="Face" style="rounded=0;whiteSpace=wrap;html=1;fillColor=none;strokeColor=#808080;fontColor=#808080;fontFamily=Helvetica;fontSize=11;" parent="1" vertex="1">
                    <mxGeometry x="160" y="440" width="80" height="40" as="geometry"/>
                </mxCell>
                <mxCell id="34" style="edgeStyle=orthogonalEdgeStyle;shape=connector;rounded=0;html=1;labelBackgroundColor=default;strokeColor=#808080;fontFamily=Helvetica;fontSize=11;fontColor=#808080;startArrow=diamondThin;startFill=0;endArrow=none;endFill=0;" edge="1" parent="1" source="27" target="5">
                    <mxGeometry relative="1" as="geometry"/>
                </mxCell>
                <mxCell id="35" value="0..2" style="edgeLabel;html=1;align=center;verticalAlign=bottom;resizable=0;points=[];fontSize=11;fontFamily=Helvetica;fontColor=#808080;labelBackgroundColor=none;" vertex="1" connectable="0" parent="34">
                    <mxGeometry x="-0.6731" relative="1" as="geometry">
                        <mxPoint x="3" as="offset"/>
                    </mxGeometry>
                </mxCell>
                <mxCell id="36" value="2" style="edgeLabel;html=1;align=center;verticalAlign=bottom;resizable=0;points=[];fontSize=11;fontFamily=Helvetica;fontColor=#808080;labelBackgroundColor=none;" vertex="1" connectable="0" parent="34">
                    <mxGeometry x="0.7038" y="-1" relative="1" as="geometry">
                        <mxPoint x="-4" y="-1" as="offset"/>
                    </mxGeometry>
                </mxCell>
                <mxCell id="27" value="Edge" style="rounded=0;whiteSpace=wrap;html=1;fillColor=none;strokeColor=#808080;fontColor=#808080;fontFamily=Helvetica;fontSize=11;" vertex="1" parent="1">
                    <mxGeometry x="280" y="440" width="80" height="40" as="geometry"/>
                </mxCell>
                <mxCell id="29" style="edgeStyle=orthogonalEdgeStyle;shape=connector;rounded=0;html=1;labelBackgroundColor=default;strokeColor=#808080;fontFamily=Helvetica;fontSize=11;fontColor=#808080;startArrow=diamondThin;startFill=0;endArrow=none;endFill=0;" edge="1" parent="1" source="20" target="27">
                    <mxGeometry relative="1" as="geometry">
                        <mxPoint x="250" y="390" as="sourcePoint"/>
                        <mxPoint x="290" y="390" as="targetPoint"/>
                        <Array as="points">
                            <mxPoint x="200" y="460"/>
                        </Array>
                    </mxGeometry>
                </mxCell>
                <mxCell id="30" value="3..*" style="edgeLabel;align=center;verticalAlign=bottom;resizable=0;points=[];fontSize=11;fontFamily=Helvetica;fontColor=#808080;labelBackgroundColor=none;spacing=2;spacingTop=0;spacingLeft=0;spacingRight=0;html=1;" vertex="1" connectable="0" parent="29">
                    <mxGeometry x="0.714" relative="1" as="geometry">
                        <mxPoint x="-4" as="offset"/>
                    </mxGeometry>
                </mxCell>
                <mxCell id="31" value="0..1" style="edgeLabel;html=1;align=center;verticalAlign=bottom;resizable=0;points=[];fontSize=11;fontFamily=Helvetica;fontColor=#808080;labelBackgroundColor=none;" vertex="1" connectable="0" parent="29">
                    <mxGeometry x="-0.4081" y="-1" relative="1" as="geometry">
                        <mxPoint x="-2" y="-1" as="offset"/>
                    </mxGeometry>
                </mxCell>
                <mxCell id="43" value="Interaction" style="text;html=1;strokeColor=none;fillColor=none;align=center;verticalAlign=middle;whiteSpace=wrap;rounded=0;labelBackgroundColor=none;fontFamily=Helvetica;fontSize=11;fontColor=#808080;opacity=10;horizontal=0;rotation=-180;" vertex="1" parent="1">
                    <mxGeometry x="490" y="350" width="30" height="60" as="geometry"/>
                </mxCell>
                <mxCell id="44" value="Data" style="text;html=1;strokeColor=none;fillColor=none;align=center;verticalAlign=middle;whiteSpace=wrap;rounded=0;labelBackgroundColor=none;fontFamily=Helvetica;fontSize=11;fontColor=#808080;opacity=10;horizontal=0;rotation=-180;" vertex="1" parent="1">
                    <mxGeometry x="490" y="430" width="30" height="60" as="geometry"/>
                </mxCell>
            </root>
        </mxGraphModel>
    </diagram>
</mxfile>